<svg viewBox="0 0 11 11" width="220px" height="220px" xmlns="http://www.w3.org/2000/svg"><path fill-rule="evenodd" d="M 3,0 8,0 8,1 11,1 11,5 10,5 10,6 11,6 11,9 10,9 10,11 1,11 1,9 0,9 0,6 1,6 1,5 0,5 0,1 3,1z" fill="#A854A8"/><path fill-rule="evenodd" d="M 4,1 5,1 5,2 6,2 6,1 7,1 7,3 4,3z" fill="#ffffff"/><path fill-rule="evenodd" d="M 1,2 2,2 2,3 3,3 3,4 1,4z" fill="#ffffff"/><path fill-rule="evenodd" d="M 9,2 10,2 10,4 8,4 8,3 9,3z" fill="#ffffff"/><path fill-rule="evenodd" d="M 4,4 5,4 5,7 3,7 3,6 2,6 2,5 4,5z" fill="#ffffff"/><path fill-rule="evenodd" d="M 6,4 7,4 7,5 9,5 9,6 8,6 8,7 6,7z" fill="#ffffff"/><path fill-rule="evenodd" d="M 1,7 2,7 2,8 1,8z" fill="#ffffff"/><path fill-rule="evenodd" d="M 5,7 6,7 6,8 5,8z" fill="#ffffff"/><path fill-rule="evenodd" d="M 9,7 10,7 10,8 9,8z" fill="#ffffff"/><path fill-rule="evenodd" d="M 4,8 5,8 5,10 2,10 2,9 4,9z" fill="#ffffff"/><path fill-rule="evenodd" d="M 6,8 7,8 7,9 9,9 9,10 6,10z" fill="#ffffff"/></svg>